<svg width="128" height="128" viewBox="0 0 128 128" fill="none" xmlns="http://www.w3.org/2000/svg">
  <!-- Background Circle -->
  <circle cx="64" cy="64" r="60" fill="#FF0000"/>
  
  <!-- Play Button (White Triangle) -->
  <path d="M86 64L50 42V86L86 64Z" fill="white"/>

  <!-- "Refresh/Replace" Arrows encircling the button -->
  <path d="M64 14C36.3858 14 14 36.3858 14 64H4C4 30.8629 30.8629 4 64 4V14ZM64 114C91.6142 114 114 91.6142 114 64H124C124 97.1371 97.1371 124 64 124V114Z" fill="white" fill-opacity="0.6"/>
  
  <!-- Arrow Heads -->
  <path d="M14 64L24 54L4 54L14 64Z" fill="white" fill-opacity="0.8"/>
  <path d="M114 64L104 74L124 74L114 64Z" fill="white" fill-opacity="0.8"/>
</svg>
